<svg xmlns="http://www.w3.org/2000/svg" width="360" viewBox="0 0 360 450" height="450" version="1.0"><defs><clipPath id="a"><path d="M 145.453125 218.757812 L 214.453125 218.757812 L 214.453125 308.757812 L 145.453125 308.757812 Z M 145.453125 218.757812"/></clipPath><clipPath id="b"><path d="M 120 257 L 201 257 L 201 337 L 120 337 Z M 120 257"/></clipPath><clipPath id="c"><path d="M 102.136719 287.484375 L 150.929688 238.691406 L 214.566406 302.332031 L 165.777344 351.125 Z M 102.136719 287.484375"/></clipPath><clipPath id="d"><path d="M 102.136719 287.484375 L 150.929688 238.691406 L 214.566406 302.332031 L 165.777344 351.125 Z M 102.136719 287.484375"/></clipPath><clipPath id="e"><path d="M 159 257 L 239 257 L 239 337 L 159 337 Z M 159 257"/></clipPath><clipPath id="f"><path d="M 209.003906 238.628906 L 257.792969 287.417969 L 194.15625 351.058594 L 145.363281 302.265625 Z M 209.003906 238.628906"/></clipPath><clipPath id="g"><path d="M 209.003906 238.628906 L 257.792969 287.417969 L 194.15625 351.058594 L 145.363281 302.265625 Z M 209.003906 238.628906"/></clipPath></defs><path fill="#FFF" d="M-36 -45H396V495H-36z"/><path fill="#FFF" d="M-36 -45H396V495H-36z"/><path fill="#FFF" d="M-36 -45H396V495H-36z"/><g fill="#597D35"><g><g><path d="M -3.085938 -7.761719 L -4.160156 -10.460938 L -25.839844 -1.839844 L -29.007812 -9.808594 L -31.265625 -8.910156 L -23.867188 9.691406 L -21.609375 8.792969 L -24.765625 0.859375 Z M -3.085938 -7.761719" transform="translate(103.16 325.374)"/></g></g></g><g fill="#597D35"><g><g><path d="M -0.261719 -1.484375 L -0.730469 -4.167969 L -9.9375 -2.550781 C -14.578125 -1.738281 -16.585938 -3.8125 -16.984375 -6.097656 C -17.554688 -9.769531 -14.796875 -10.851562 -11.816406 -11.335938 L -2.285156 -13.011719 L -2.757812 -15.695312 L -12.289062 -14.019531 C -16.816406 -13.222656 -20.128906 -11.222656 -19.222656 -6.078125 C -18.847656 -3.9375 -17.472656 -2.050781 -15.300781 -1.609375 L -26.101562 0.289062 L -25.632812 2.96875 Z M -0.261719 -1.484375" transform="translate(96.12 307.996)"/></g></g></g><g fill="#597D35"><g><g><path d="M 0.539062 -8.160156 C 0.585938 -10.957031 -0.4375 -13.550781 -3.804688 -14.859375 L -4.613281 -12.664062 C -2.820312 -12.007812 -1.78125 -10.1875 -1.8125 -8.3125 C -1.863281 -5.183594 -4.726562 -3.5 -7.5625 -3.472656 L -7.359375 -15.6875 C -7.652344 -15.695312 -7.945312 -15.734375 -8.277344 -15.742188 C -12.988281 -15.820312 -17.65625 -13.945312 -17.746094 -8.464844 C -17.824219 -3.753906 -14.265625 -0.898438 -8.710938 -0.804688 C -2.96875 -0.710938 0.46875 -3.855469 0.539062 -8.160156 Z M -9.804688 -3.511719 C -13.628906 -3.722656 -15.503906 -5.996094 -15.464844 -8.390625 C -15.414062 -11.589844 -12.519531 -13.050781 -9.648438 -13.078125 Z M -9.804688 -3.511719" transform="translate(93.028 291.155)"/></g></g></g><g fill="#597D35"><g><g><path d="M 0.644531 -1.722656 L 1.660156 -4.449219 L -11.75 -9.453125 L -18.464844 -11.878906 L -2.398438 -14.835938 L -1.804688 -16.421875 L -12.007812 -29.183594 L -5.34375 -26.621094 L 8.066406 -21.617188 L 9.082031 -24.339844 L -15.050781 -33.34375 L -16.171875 -30.34375 L -5.445312 -16.878906 L -22.371094 -13.726562 L -23.488281 -10.730469 Z M 0.644531 -1.722656" transform="translate(93.534 266.917)"/></g></g></g><g fill="#597D35"><g><g><path d="M -18.25 -12.914062 L -16.855469 -15.210938 L -19.84375 -17.023438 L -21.238281 -14.726562 Z M 0.820312 -1.351562 L 2.214844 -3.648438 L -12.796875 -12.75 L -14.1875 -10.453125 Z M 0.820312 -1.351562" transform="translate(103.867 241.653)"/></g></g></g><g fill="#597D35"><g><g><path d="M 0.925781 -1.144531 L 2.636719 -3.261719 L -4.628906 -9.140625 C -8.292969 -12.101562 -8.046875 -14.976562 -6.589844 -16.78125 C -4.195312 -19.625 -1.566406 -18.253906 0.757812 -16.328125 L 8.28125 -10.242188 L 9.996094 -12.363281 L 2.46875 -18.445312 C -1.109375 -21.339844 -4.789062 -22.519531 -8.078125 -18.457031 C -9.441406 -16.765625 -10.027344 -14.402344 -8.957031 -12.449219 L -11.285156 -13.902344 L -12.695312 -12.15625 Z M 0.925781 -1.144531" transform="translate(106.533 236.318)"/></g></g></g><g fill="#597D35"><g><g><path d="M 6.652344 -5.0625 C 8.210938 -6.359375 9.363281 -8.132812 8.921875 -10.449219 L 10.632812 -8.855469 L 12.441406 -10.363281 L -4.042969 -30.15625 L -6.136719 -28.414062 L 0.742188 -20.15625 C -1.195312 -20.984375 -3.328125 -20.5 -4.914062 -19.183594 C -8.785156 -15.957031 -8.238281 -11.097656 -5.199219 -7.449219 C -1.996094 -3.605469 2.722656 -1.789062 6.652344 -5.0625 Z M 5.316406 -7.015625 C 2.6875 -4.824219 -0.753906 -6.367188 -2.917969 -8.96875 C -5.085938 -11.566406 -5.980469 -15.230469 -3.347656 -17.417969 C -0.492188 -19.796875 2.699219 -18.148438 5.410156 -14.894531 C 7.710938 -12.074219 7.691406 -8.992188 5.316406 -7.015625 Z M 5.316406 -7.015625" transform="translate(117.059 222.968)"/></g></g></g><g fill="#597D35"><g><g><path d="M 2.199219 3.484375 L 4.035156 2.324219 L 2.660156 -4.332031 L 0.140625 -2.742188 Z M 2.199219 3.484375" transform="translate(131.016 211.783)"/></g></g></g><g fill="#597D35"><g><g><path d="M 1.714844 -0.5625 L 12.132812 -3.984375 C 16.570312 -5.441406 18.621094 -8.75 17.117188 -13.328125 C 16.210938 -16.089844 14.335938 -18.148438 11.285156 -18 L 11.261719 -18.070312 C 12.722656 -19.515625 13.011719 -21.820312 12.382812 -23.742188 C 11.027344 -27.867188 8.042969 -29.753906 3.746094 -28.34375 L -6.324219 -25.035156 Z M -0.175781 -15.511719 L -2.804688 -23.519531 L 4.570312 -25.941406 C 7.089844 -26.769531 8.875 -25.222656 9.65625 -22.964844 C 10.414062 -20.65625 9.964844 -18.84375 7.445312 -18.015625 Z M 3.648438 -3.871094 L 0.617188 -13.101562 L 8.308594 -15.625 C 10.40625 -16.316406 13.09375 -16.269531 14.332031 -12.492188 C 15.722656 -8.261719 13.085938 -6.96875 11.339844 -6.398438 Z M 3.648438 -3.871094" transform="translate(142.256 204.536)"/></g></g></g><g fill="#597D35"><g><g><path d="M 8.457031 -0.496094 C 13.289062 -1.015625 15.703125 -5.082031 15.136719 -10.390625 C 14.5625 -15.730469 11.34375 -19.199219 6.515625 -18.683594 C 1.648438 -18.160156 -0.765625 -14.09375 -0.195312 -8.75 C 0.371094 -3.445312 3.59375 0.0234375 8.457031 -0.496094 Z M 8.207031 -2.839844 C 5.28125 -2.527344 2.90625 -5.011719 2.476562 -9.035156 C 2.046875 -13.058594 3.835938 -16.027344 6.765625 -16.339844 C 9.65625 -16.648438 12.035156 -14.128906 12.464844 -10.105469 C 12.894531 -6.078125 11.097656 -3.148438 8.207031 -2.839844 Z M 8.207031 -2.839844" transform="translate(161.647 198.157)"/></g></g></g><g fill="#597D35"><g><g><path d="M 8.289062 1.097656 C 10.304688 1.273438 12.375 0.824219 13.691406 -1.128906 L 13.785156 1.207031 L 16.128906 1.414062 L 18.378906 -24.246094 L 15.664062 -24.484375 L 14.726562 -13.78125 C 13.9375 -15.734375 12.082031 -16.894531 10.03125 -17.074219 C 5.007812 -17.511719 1.976562 -13.679688 1.558594 -8.949219 C 1.125 -3.964844 3.195312 0.648438 8.289062 1.097656 Z M 8.714844 -1.230469 C 5.304688 -1.53125 3.953125 -5.046875 4.246094 -8.417969 C 4.542969 -11.792969 6.488281 -15.019531 9.898438 -14.722656 C 13.597656 -14.394531 14.703125 -10.976562 14.332031 -6.757812 C 13.980469 -3.132812 11.792969 -0.960938 8.714844 -1.230469 Z M 8.714844 -1.230469" transform="translate(178.074 196.174)"/></g></g></g><g fill="#597D35"><g><g><path d="M 0.109375 9.046875 L 2.945312 9.839844 L 20.007812 -12.253906 L 20.085938 -12.535156 L 17.25 -13.328125 L 11.25 -5.261719 L 8.261719 -0.710938 L 8.1875 -0.730469 L 7.9375 -6.113281 L 6.867188 -16.230469 L 4.066406 -17.011719 L 3.988281 -16.730469 L 6.105469 1.398438 L 0.136719 8.941406 Z M 0.109375 9.046875" transform="translate(195.398 197.635)"/></g></g></g><g fill="#597D35"><g><g><path d="M -1.570312 3.808594 L 0.4375 4.636719 L 5.074219 -0.335938 L 2.316406 -1.472656 Z M -1.570312 3.808594" transform="translate(210.28 202.039)"/></g></g></g><g fill="#597D35"><g><g><path d="M 5.253906 4.230469 C 7.351562 5.722656 10.265625 6.710938 12.742188 5.445312 L 11.246094 7.996094 L 12.957031 9.210938 L 14.59375 6.71875 L 19.027344 0.480469 C 21.800781 -3.417969 20.328125 -7.445312 16.78125 -10.011719 C 14.890625 -11.355469 12.65625 -12.085938 10.441406 -11.765625 L 10.464844 -9.449219 C 12.179688 -9.761719 14.035156 -9.074219 15.386719 -8.113281 C 17.582031 -6.507812 18.996094 -3.921875 16.820312 -0.863281 L 11.421875 -4.703125 C 8.246094 -6.960938 5.148438 -5.910156 3.59375 -3.722656 C 1.996094 -1.472656 2.015625 1.929688 5.253906 4.230469 Z M 6.617188 2.3125 C 4.667969 0.925781 4.605469 -1.015625 5.523438 -2.304688 C 6.417969 -3.566406 8.273438 -4.140625 10.160156 -2.800781 L 15.648438 1.101562 C 13.195312 4.367188 9.738281 4.53125 6.617188 2.3125 Z M 6.617188 2.3125" transform="translate(222.735 207.287)"/></g></g></g><g fill="#597D35"><g><g><path d="M 1.011719 1.070312 L 2.882812 3.046875 L 9.671875 -3.382812 C 13.089844 -6.621094 15.910156 -5.996094 17.503906 -4.316406 C 20.007812 -1.566406 18.300781 0.859375 16.085938 2.910156 L 9.058594 9.5625 L 10.933594 11.542969 L 17.957031 4.886719 C 21.296875 1.722656 22.953125 -1.773438 19.359375 -5.566406 C 17.867188 -7.140625 15.601562 -8.035156 13.523438 -7.234375 L 15.273438 -9.347656 L 13.730469 -10.976562 Z M 1.011719 1.070312" transform="translate(236.655 216.945)"/></g></g></g><g fill="#597D35"><g><g><path d="M 4.140625 7.265625 C 5.21875 8.976562 6.824219 10.355469 9.175781 10.226562 L 7.371094 11.707031 L 8.625 13.703125 L 30.425781 -0.0195312 L 28.972656 -2.324219 L 19.878906 3.398438 C 20.960938 1.589844 20.761719 -0.589844 19.664062 -2.335938 C 16.976562 -6.601562 12.089844 -6.699219 8.074219 -4.167969 C 3.835938 -1.503906 1.414062 2.9375 4.140625 7.265625 Z M 6.25 6.195312 C 4.425781 3.300781 6.410156 0.0976562 9.273438 -1.707031 C 12.140625 -3.511719 15.886719 -3.914062 17.710938 -1.015625 C 19.6875 2.128906 17.632812 5.074219 14.050781 7.332031 C 10.949219 9.238281 7.894531 8.8125 6.25 6.195312 Z M 6.25 6.195312" transform="translate(248.494 229.146)"/></g></g></g><g fill="#597D35"><g><g><path d="M 2.054688 10.375 C 3.171875 14.796875 6.378906 19.527344 11.871094 18.140625 C 18.007812 16.589844 17.371094 11.96875 16.679688 6.980469 C 16.207031 3.761719 15.351562 0.371094 19.417969 -0.65625 C 22.988281 -1.558594 24.816406 1.320312 25.582031 4.351562 C 26.300781 7.207031 26.203125 10.722656 22.46875 11.855469 L 23.144531 14.53125 C 28.199219 13.066406 29.277344 8.464844 28.078125 3.71875 C 26.941406 -0.773438 23.949219 -4.800781 18.742188 -3.484375 C 13.355469 -2.121094 13.054688 2.242188 13.996094 7.015625 C 14.679688 10.332031 15.28125 14.203125 11.175781 15.242188 C 7.644531 16.132812 5.289062 12.515625 4.585938 9.734375 C 3.773438 6.523438 4.628906 2.550781 8.125 1.664062 L 7.429688 -1.082031 C 1.6875 0.371094 0.980469 6.128906 2.054688 10.375 Z M 2.054688 10.375" transform="translate(261.53 251.197)"/></g></g></g><g fill="#597D35"><g><g><path d="M -8.269531 1.722656 L -8.183594 4.445312 L 2.554688 4.121094 C 0.746094 5.132812 -0.1875 7.109375 -0.125 9.171875 C 0.0273438 14.246094 4.191406 16.769531 8.972656 16.625 C 14.011719 16.472656 18.273438 13.804688 18.121094 8.765625 C 18.058594 6.742188 17.375 4.738281 15.277344 3.660156 L 17.625 3.292969 L 17.550781 0.941406 Z M 2.226562 9.027344 C 2.113281 5.3125 5.378906 3.8125 9.609375 3.683594 C 13.253906 3.609375 15.667969 5.527344 15.761719 8.613281 C 15.863281 12.035156 12.53125 13.792969 9.148438 13.894531 C 5.761719 14 2.328125 12.445312 2.226562 9.027344 Z M 2.226562 9.027344" transform="translate(266.65 271.28)"/></g></g></g><g fill="#597D35"><g><g><path d="M 22.003906 3.949219 L 21.71875 6.617188 L 25.195312 6.992188 L 25.480469 4.320312 Z M -0.167969 1.574219 L -0.453125 4.246094 L 17 6.113281 L 17.285156 3.441406 Z M -0.167969 1.574219" transform="translate(266.88 289.218)"/></g></g></g><g fill="#597D35"><g><g><path d="M -0.320312 1.472656 L -0.894531 4.136719 L 8.273438 6.121094 C 12.050781 6.941406 13.820312 9.546875 13.328125 11.8125 C 13.144531 12.675781 12.632812 13.46875 11.769531 14.148438 L 13.785156 15.789062 C 14.6875 14.929688 15.429688 13.585938 15.71875 12.253906 C 16.0625 10.671875 15.695312 8.710938 13.90625 7.230469 L 16.324219 7.378906 L 16.792969 5.21875 Z M -0.320312 1.472656" transform="translate(266.439 295.413)"/></g></g></g><g fill="#597D35"><g><g><path d="M 20.667969 8.519531 L 19.824219 11.070312 L 23.140625 12.167969 L 23.988281 9.617188 Z M -0.496094 1.5 L -1.34375 4.050781 L 15.316406 9.574219 L 16.164062 7.023438 Z M -0.496094 1.5" transform="translate(263.718 307.478)"/></g></g></g><g fill="#597D35"><g><g><path d="M -3.910156 7.644531 C -4.316406 8.550781 -4.488281 9.5625 -4.394531 10.613281 L -2.179688 10.796875 C -2.324219 10.128906 -2.167969 9.511719 -1.898438 8.910156 C -0.707031 6.257812 1.503906 6.359375 3.71875 7.355469 L 11.777344 10.96875 L 9.519531 16.003906 L 11.601562 16.9375 L 13.859375 11.902344 L 19.0625 14.234375 L 19.320312 13.664062 L 18.976562 11.371094 L 14.914062 9.550781 L 15.984375 7.167969 L 13.902344 6.234375 L 12.832031 8.617188 L 4.773438 5.003906 C 0.710938 3.183594 -2.28125 4.097656 -3.910156 7.644531 Z M -3.910156 7.644531" transform="translate(261.92 313.476)"/></g></g></g><path fill="#98BF64" d="M 198.941406 231.742188 C 188.480469 221.277344 171.515625 221.277344 161.054688 231.742188 C 150.589844 242.203125 150.589844 259.164062 161.054688 269.628906 L 180 288.574219 L 198.941406 269.628906 C 209.410156 259.167969 209.40625 242.203125 198.941406 231.742188 Z M 198.941406 231.742188"/><path fill="#98BF64" d="M 196.726562 332.117188 C 211.761719 331.167969 228.394531 303.050781 228.394531 303.050781 C 228.394531 303.050781 208.230469 277.378906 193.316406 278.203125 C 185.621094 278.6875 179.746094 285.351562 180.234375 293.039062 C 180.605469 298.949219 184.714844 303.796875 190.046875 305.472656 C 184.96875 307.808594 181.503906 313.136719 181.878906 319.046875 C 182.363281 326.734375 189.03125 332.605469 196.726562 332.117188"/><path fill="#98BF64" d="M 185.210938 291.730469 C 191.519531 305.410156 223.742188 310.789062 223.742188 310.789062 C 223.742188 310.789062 240.417969 282.722656 234.273438 269.109375 C 231.042969 262.109375 222.710938 259.03125 215.714844 262.257812 C 210.339844 264.734375 207.296875 270.316406 207.652344 275.894531 C 203.648438 272 197.425781 270.6875 192.046875 273.167969 C 185.050781 276.394531 181.984375 284.726562 185.210938 291.730469"/><path fill="#98BF64" d="M 166.226562 278.457031 C 151.175781 277.847656 131.726562 304.097656 131.726562 304.097656 C 131.726562 304.097656 149.128906 331.714844 164.046875 332.4375 C 171.75 332.75 178.28125 326.730469 178.59375 319.03125 C 178.832031 313.117188 175.246094 307.867188 170.117188 305.648438 C 175.410156 303.851562 179.40625 298.910156 179.644531 292.992188 C 179.957031 285.296875 173.933594 278.769531 166.226562 278.457031"/><path fill="#74B72E" d="M 197.566406 302.238281 L 180 332.664062 L 162.433594 302.238281 Z M 197.566406 302.238281"/><path fill="#98BF64" d="M 128.367188 266.300781 C 120.6875 276.957031 130.421875 303.71875 130.421875 303.71875 C 130.421875 303.71875 158.875 304.339844 166.570312 293.839844 C 170.503906 288.386719 169.265625 280.742188 163.816406 276.816406 C 159.628906 273.796875 154.089844 273.882812 150.011719 276.546875 C 151.246094 271.835938 149.574219 266.550781 145.386719 263.53125 C 139.941406 259.605469 132.296875 260.847656 128.367188 266.300781"/><path fill="#EEA2F2" d="M 180.183594 272.007812 C 169 272.007812 159.933594 280.234375 159.933594 290.382812 C 159.933594 300.53125 169 308.757812 180.183594 308.757812 C 191.367188 308.757812 200.433594 300.53125 200.433594 290.382812 C 200.433594 280.234375 191.367188 272.007812 180.183594 272.007812"/><path fill="#74B72E" d="M 202.523438 297.515625 L 179.347656 271.109375 L 213.804688 264.242188 Z M 202.523438 297.515625"/><path fill="#74B72E" d="M 148.105469 264.160156 L 182.082031 273.101562 L 157.351562 298.058594 Z M 148.105469 264.160156"/><g clip-path="url(#a)"><path fill="#597D35" d="M 179.953125 308.734375 C 160.929688 308.734375 145.453125 293.214844 145.453125 274.136719 C 145.453125 255.1875 160.023438 218.785156 179.953125 218.785156 C 199.882812 218.785156 214.453125 255.1875 214.453125 274.136719 C 214.453125 293.214844 198.976562 308.734375 179.953125 308.734375 Z M 179.953125 225.703125 C 166.261719 225.703125 152.351562 256.777344 152.351562 274.136719 C 152.351562 289.398438 164.734375 301.816406 179.953125 301.816406 C 195.171875 301.816406 207.550781 289.398438 207.550781 274.136719 C 207.550781 256.777344 193.640625 225.703125 179.953125 225.703125 Z M 179.953125 225.703125"/></g><g clip-path="url(#b)"><g clip-path="url(#c)"><g clip-path="url(#d)"><path fill="#597D35" d="M 190.15625 326.710938 C 176.703125 340.160156 154.785156 340.132812 141.296875 326.640625 C 127.898438 313.242188 112.457031 277.199219 126.550781 263.105469 C 140.644531 249.011719 176.6875 264.453125 190.085938 277.851562 C 203.574219 291.339844 203.605469 313.257812 190.15625 326.710938 Z M 131.441406 268 C 121.761719 277.679688 133.898438 309.488281 146.175781 321.761719 C 156.964844 332.554688 174.5 332.578125 185.261719 321.816406 C 196.023438 311.058594 196 293.523438 185.207031 282.730469 C 172.933594 270.457031 141.125 258.320312 131.441406 268 Z M 131.441406 268"/></g></g></g><g clip-path="url(#e)"><g clip-path="url(#f)"><g clip-path="url(#g)"><path fill="#597D35" d="M 169.777344 326.644531 C 156.324219 313.191406 156.355469 291.273438 169.84375 277.785156 C 183.242188 264.386719 219.289062 248.945312 233.382812 263.039062 C 247.472656 277.132812 232.035156 313.175781 218.636719 326.574219 C 205.144531 340.066406 183.226562 340.097656 169.777344 326.644531 Z M 228.488281 267.933594 C 218.808594 258.253906 187 270.390625 174.722656 282.664062 C 163.933594 293.457031 163.910156 310.992188 174.667969 321.75 C 185.429688 332.511719 202.964844 332.488281 213.757812 321.695312 C 226.03125 309.421875 238.167969 277.613281 228.488281 267.933594 Z M 228.488281 267.933594"/></g></g></g><g fill="#597D35"><g><g><path d="M 15.070312 0.769531 C 20.257812 0.769531 25.488281 -1.824219 27.792969 -8.449219 L 24.480469 -9.3125 C 22.800781 -4.511719 18.625 -2.640625 15.070312 -2.640625 C 8.976562 -2.640625 4.703125 -8.496094 4.703125 -16.847656 C 4.703125 -25.199219 8.976562 -30.960938 15.070312 -30.960938 C 18.71875 -30.960938 22.464844 -29.328125 24.289062 -24.238281 L 27.503906 -25.007812 C 25.921875 -31.007812 21.3125 -34.320312 15.070312 -34.320312 C 6.574219 -34.320312 0.863281 -26.976562 0.863281 -16.847656 C 0.863281 -8.160156 5.375 0.769531 15.070312 0.769531 Z M 15.070312 0.769531" transform="translate(42.21 78.45)"/></g></g></g><g fill="#597D35"><g><g><path d="M 11.039062 0.527344 C 17.375 0.527344 21.070312 -4.414062 21.070312 -11.375 C 21.070312 -18.382812 17.375 -23.328125 11.039062 -23.328125 C 4.65625 -23.328125 0.960938 -18.382812 0.960938 -11.375 C 0.960938 -4.414062 4.65625 0.527344 11.039062 0.527344 Z M 11.039062 -2.542969 C 7.199219 -2.542969 4.464844 -6.097656 4.464844 -11.375 C 4.464844 -16.65625 7.199219 -20.257812 11.039062 -20.257812 C 14.832031 -20.257812 17.566406 -16.65625 17.566406 -11.375 C 17.566406 -6.097656 14.832031 -2.542969 11.039062 -2.542969 Z M 11.039062 -2.542969" transform="translate(72.259 78.45)"/></g></g></g><g fill="#597D35"><g><g><path d="M 1.921875 0 L 5.472656 0 L 5.472656 -12.335938 C 5.519531 -18.480469 8.257812 -20.449219 11.230469 -20.449219 C 15.648438 -20.449219 15.792969 -16.128906 15.792969 -12.671875 L 15.792969 0 L 19.296875 0 L 19.296875 -12.625 C 19.296875 -17.230469 21.359375 -20.449219 25.007812 -20.449219 C 29.425781 -20.449219 29.566406 -16.511719 29.566406 -13.105469 L 29.566406 0 L 33.121094 0 L 33.121094 -13.054688 C 33.121094 -18.289062 32.113281 -23.328125 25.726562 -23.328125 C 22.464844 -23.328125 19.390625 -21.648438 18.097656 -17.710938 C 17.230469 -21.3125 15.167969 -23.328125 11.230469 -23.328125 C 8.6875 -23.328125 6.480469 -22.078125 5.230469 -19.199219 L 4.847656 -22.847656 L 1.921875 -22.847656 Z M 1.921875 0" transform="translate(96.355 78.45)"/></g></g></g><g fill="#597D35"><g><g><path d="M 2.0625 -29.089844 L 5.566406 -29.089844 L 5.566406 -33.648438 L 2.0625 -33.648438 Z M 2.0625 0 L 5.566406 0 L 5.566406 -22.894531 L 2.0625 -22.894531 Z M 2.0625 0" transform="translate(133.507 78.45)"/></g></g></g><g fill="#597D35"><g><g><path d="M 1.921875 0 L 5.472656 0 L 5.472656 -12.191406 C 5.472656 -18.335938 8.59375 -20.449219 11.617188 -20.449219 C 16.464844 -20.351562 17.230469 -16.558594 17.183594 -12.625 L 17.183594 0 L 20.734375 0 L 20.734375 -12.625 C 20.734375 -18.625 18.910156 -23.328125 12.097656 -23.328125 C 9.265625 -23.328125 6.382812 -21.984375 5.28125 -19.296875 L 4.847656 -22.847656 L 1.921875 -22.847656 Z M 1.921875 0" transform="translate(143.01 78.45)"/></g></g></g><g fill="#597D35"><g><g><path d="M 11.902344 11.472656 C 17.089844 11.472656 21.839844 9.742188 21.839844 3.742188 C 21.839844 -1.921875 17.472656 -3.023438 12.574219 -3.023438 L 7.585938 -3.023438 C 4.894531 -3.023438 3.886719 -4.273438 3.886719 -5.519531 C 3.886719 -6.910156 5.039062 -8.304688 6.625 -8.304688 C 7.054688 -8.304688 7.488281 -8.207031 7.921875 -8.015625 C 9.070312 -7.535156 10.367188 -7.296875 11.664062 -7.296875 C 16.222656 -7.296875 20.640625 -10.222656 20.640625 -15.167969 C 20.640625 -17.808594 19.726562 -19.535156 17.375 -20.785156 L 17.425781 -20.878906 C 18.046875 -20.59375 18.910156 -20.496094 19.679688 -20.496094 C 20.257812 -20.496094 20.785156 -20.542969 21.167969 -20.542969 L 21.167969 -23.375 L 11.566406 -23.375 C 6.527344 -23.375 1.96875 -20.929688 1.96875 -15.3125 C 1.96875 -13.585938 2.734375 -11.472656 4.273438 -10.128906 C 2.0625 -9.742188 0.671875 -7.632812 0.671875 -5.425781 C 0.671875 -3.601562 1.679688 -1.679688 3.9375 -0.769531 C 2.304688 0.289062 1.585938 2.207031 1.585938 4.128906 C 1.585938 5.28125 1.871094 6.480469 2.398438 7.488281 C 4.367188 11.039062 8.449219 11.425781 11.902344 11.472656 Z M 11.617188 -10.273438 C 7.488281 -10.273438 5.472656 -12.816406 5.472656 -15.3125 C 5.472656 -17.808594 7.441406 -20.304688 11.28125 -20.304688 C 14.398438 -20.304688 17.183594 -18.433594 17.183594 -15.121094 C 17.183594 -12.671875 15.359375 -10.273438 11.617188 -10.273438 Z M 11.855469 8.257812 C 9.121094 8.207031 6.238281 7.390625 5.328125 5.761719 C 4.992188 5.183594 4.847656 4.511719 4.847656 3.792969 C 4.847656 2.351562 5.472656 0.863281 6.625 0 L 12.527344 0 C 14.160156 0 18.433594 -0.0976562 18.433594 3.9375 C 18.433594 7.585938 15.070312 8.257812 11.855469 8.257812 Z M 11.855469 8.257812" transform="translate(167.73 78.45)"/></g></g></g><g fill="#597D35"><g><g><path d="M 13.777344 0.71875 C 19.726562 0.71875 26.734375 -1.824219 26.734375 -9.214844 C 26.734375 -17.472656 20.6875 -18.144531 14.160156 -18.863281 C 9.9375 -19.296875 5.375 -19.296875 5.375 -24.769531 C 5.375 -29.566406 9.601562 -30.960938 13.679688 -30.960938 C 17.519531 -30.960938 21.9375 -29.710938 22.175781 -24.625 L 25.777344 -24.625 C 25.535156 -31.488281 20.0625 -34.320312 13.679688 -34.320312 C 7.632812 -34.320312 1.585938 -31.824219 1.585938 -24.816406 C 1.585938 -17.566406 7.007812 -15.792969 13.34375 -15.457031 C 17.761719 -15.265625 22.847656 -14.785156 22.847656 -9.265625 C 22.847656 -4.511719 17.519531 -2.6875 13.777344 -2.6875 C 9.457031 -2.6875 4.703125 -5.039062 4.703125 -9.742188 L 1.007812 -9.742188 C 1.007812 -2.015625 8.0625 0.71875 13.777344 0.71875 Z M 13.777344 0.71875" transform="translate(204.163 78.45)"/></g></g></g><g fill="#597D35"><g><g><path d="M 11.039062 0.527344 C 17.375 0.527344 21.070312 -4.414062 21.070312 -11.375 C 21.070312 -18.382812 17.375 -23.328125 11.039062 -23.328125 C 4.65625 -23.328125 0.960938 -18.382812 0.960938 -11.375 C 0.960938 -4.414062 4.65625 0.527344 11.039062 0.527344 Z M 11.039062 -2.542969 C 7.199219 -2.542969 4.464844 -6.097656 4.464844 -11.375 C 4.464844 -16.65625 7.199219 -20.257812 11.039062 -20.257812 C 14.832031 -20.257812 17.566406 -16.65625 17.566406 -11.375 C 17.566406 -6.097656 14.832031 -2.542969 11.039062 -2.542969 Z M 11.039062 -2.542969" transform="translate(234.019 78.45)"/></g></g></g><g fill="#597D35"><g><g><path d="M 11.039062 0.527344 C 17.375 0.527344 21.070312 -4.414062 21.070312 -11.375 C 21.070312 -18.382812 17.375 -23.328125 11.039062 -23.328125 C 4.65625 -23.328125 0.960938 -18.382812 0.960938 -11.375 C 0.960938 -4.414062 4.65625 0.527344 11.039062 0.527344 Z M 11.039062 -2.542969 C 7.199219 -2.542969 4.464844 -6.097656 4.464844 -11.375 C 4.464844 -16.65625 7.199219 -20.257812 11.039062 -20.257812 C 14.832031 -20.257812 17.566406 -16.65625 17.566406 -11.375 C 17.566406 -6.097656 14.832031 -2.542969 11.039062 -2.542969 Z M 11.039062 -2.542969" transform="translate(258.115 78.45)"/></g></g></g><g fill="#597D35"><g><g><path d="M 1.921875 0 L 5.472656 0 L 5.472656 -12.191406 C 5.472656 -18.335938 8.59375 -20.449219 11.617188 -20.449219 C 16.464844 -20.351562 17.230469 -16.558594 17.183594 -12.625 L 17.183594 0 L 20.734375 0 L 20.734375 -12.625 C 20.734375 -18.625 18.910156 -23.328125 12.097656 -23.328125 C 9.265625 -23.328125 6.382812 -21.984375 5.28125 -19.296875 L 4.847656 -22.847656 L 1.921875 -22.847656 Z M 1.921875 0" transform="translate(282.21 78.45)"/></g></g></g><g fill="#597D35"><g><g><path d="M 2.976562 -7.96875 L 6.71875 -7.96875 L 6.71875 -33.601562 L 2.976562 -33.601562 Z M 2.878906 0 L 6.816406 0 L 6.816406 -4.558594 L 2.878906 -4.558594 Z M 2.878906 0" transform="translate(306.93 78.45)"/></g></g></g></svg>